<?xml version="1.0" standalone="no"?><!DOCTYPE svg PUBLIC "-//W3C//DTD SVG 1.1//EN" "http://www.w3.org/Graphics/SVG/1.1/DTD/svg11.dtd"><svg t="1510033490876" class="icon" style="" viewBox="0 0 1024 1024" version="1.1" xmlns="http://www.w3.org/2000/svg" p-id="805" xmlns:xlink="http://www.w3.org/1999/xlink" width="512" height="512"><defs><style type="text/css"></style></defs><path d="M512 512m-512 0a512 512 0 1 0 1024 0 512 512 0 1 0-1024 0Z" fill="#F0F0F0" p-id="806"></path><path d="M1024 512c0-202.988-118.13-378.38-289.392-461.196v922.39C905.87 890.38 1024 714.988 1024 512zM0 512c0 202.988 118.13 378.38 289.392 461.196V50.804C118.13 133.62 0 309.012 0 512zM601.044 578.782l89.042-44.522-44.52-22.26v-44.522L556.522 512l44.522-89.044h-44.522L512 356.174l-44.522 66.782h-44.522L467.478 512l-89.044-44.522V512l-44.52 22.26 89.042 44.522-22.26 44.522h89.044v66.782h44.52v-66.782h89.044z" fill="#D80027" p-id="807"></path></svg>