<?xml version="1.0" standalone="no"?><!DOCTYPE svg PUBLIC "-//W3C//DTD SVG 1.1//EN" "http://www.w3.org/Graphics/SVG/1.1/DTD/svg11.dtd"><svg t="1533151502817" class="icon" style="" viewBox="0 0 1024 1024" version="1.1" xmlns="http://www.w3.org/2000/svg" p-id="2217" xmlns:xlink="http://www.w3.org/1999/xlink" width="512" height="512"><defs><style type="text/css"></style></defs><path d="M1023.8976 511.5904C1023.8976 229.0176 794.7264 0 512 0 229.2224 0 0 229.0176 0 511.5904c0 260.9664 195.584 476.3136 448.256 507.648a255.744 255.744 0 0 0 69.12 3.8912c280.2176-2.8672 506.5216-230.8096 506.5216-511.5392z m-73.216 7.2192a500.8896 500.8896 0 0 0-9.9328-74.752c0.4608-8.704 0.5632-16.896 0.3072-24.576a439.9104 439.9104 0 0 1 9.6768 99.328z m-877.568-7.2192c0-31.0272 3.2768-61.2864 9.3696-90.4704 18.944 20.2752 63.6416 19.8144 74.496-10.496 19.5072 11.6224 45.7216 13.7216 45.7216 36.9664 0 76.5952 2.7136 158.72 72.3456 160.0512 1.9456 0 38.8096 13.9776 56.32 59.4432 6.144 15.7184 30.1056 0 56.4224 0 13.1072 0 0 22.1184 0 69.9904 0 47.6672 102.7584 121.088 102.7584 121.088-0.4608 31.5392 0.8192 57.088 3.4816 77.4656a172.032 172.032 0 0 0-58.112 7.8848c-206.1312-35.9936-362.8032-215.7056-362.8032-431.9232z m546.8672 425.0624c-2.2528-11.1104-12.2368-17.2032-30.3616-12.4416 14.4896-61.696 21.504-96.256 51.7632-122.5216 43.776-37.888 5.2224-80.128-28.1088-75.1104-26.2144 3.9424-9.6256-32.512-33.0752-34.56-23.3984-1.9456-54.016-48.5376-87.7056-64.5632-17.92-8.4992-35.4816-31.232-63.0272-32.256-24.4224-0.9728-60.1088 20.6336-60.1088 3.9936 0-53.6576-5.4784-91.904-6.5536-107.2128-0.9216-12.288-8.0384-4.096 24.9856-3.328 17.92 0.512 9.216-36.096 26.9824-37.5296 17.4592-1.3824 59.0848 16.384 69.7344 9.2672 9.8304-6.5536 72.448 164.3008 72.448 28.2624 0-16.128-8.3968-44.2368 0-59.4944 33.024-60.416 64-109.6704 61.2352-116.8384-1.5872-4.096-33.8432-7.424-59.648 1.2288-8.704 2.9184 2.7648 16.5376-9.728 19.456-46.8992 10.8032-88.2688-12.6464-73.7792-34.6624 14.848-22.5792 68.608-9.8816 73.3696-55.1936 2.7136-25.9584 4.9664-56.0128 6.4512-78.336 63.0784 9.8304 56.1152-81.92-37.632-91.6992a438.9888 438.9888 0 0 1 409.4464 294.7584 17.92 17.92 0 0 0-10.4448-4.7616c-28.3648-70.8096-97.1776-19.5584-73.8304 42.9056-125.0816 96.1536-93.0816 163.2256-51.968 201.6256 21.6064 20.1728 42.24 50.5344 55.6544 72.3456-14.592 42.5984 53.8112 25.5488 87.552-46.7456a439.4496 439.4496 0 0 1-313.6512 303.4112z" p-id="2218" fill="#2c2c2c"></path></svg>