<?xml version="1.0" standalone="no"?><!DOCTYPE svg PUBLIC "-//W3C//DTD SVG 1.1//EN" "http://www.w3.org/Graphics/SVG/1.1/DTD/svg11.dtd"><svg t="1509987151000" class="icon" style="" viewBox="0 0 1024 1024" version="1.1" xmlns="http://www.w3.org/2000/svg" p-id="9064" xmlns:xlink="http://www.w3.org/1999/xlink" width="512" height="512"><defs><style type="text/css"></style></defs><path d="M331.121993 495.563113l10.801382-14.16101 17.845764 0.79475-10.115008-14.739011 6.430255-16.689762-17.267763 5.165879-13.908135-11.271008-0.36125 17.845763-14.955761 9.789882 16.798137 5.996754 4.732379 17.267763z m161.225993-137.600226l10.801383-14.269385 17.954138 0.903125-10.223383-14.73901 6.32188-16.689763-17.014888 5.057504-13.908135-11.162633-0.469625 17.845763-14.955761 9.789882 16.906512 5.996755 4.587879 17.267762z m-54.079165 289.000212l-17.014887 5.057504-14.052636-11.054259-0.36125 17.845764-14.847386 9.898257 16.906512 5.852254 4.840754 17.159388 10.693008-14.269386 17.845763 0.794751-10.223383-14.594511 6.213505-16.689762z m211.22303-17.376138l-17.014888 5.165879-14.052635-11.162633-0.36125 17.954138-14.847386 9.789882 16.798137 5.852254 4.840754 17.267763 10.693007-14.269385 17.954139 0.79475-10.223383-14.594511 6.213505-16.798137z" fill="#DE2910" p-id="9065"></path><path d="M512 0C229.213293 0 0 229.213293 0 512s229.213293 512 512 512 512-229.213293 512-512S794.822832 0 512 0z m-7.586256 227.118041c27.16602-12.643759 55.235165-16.689762 81.678685-13.330134-1.481126 0.578-2.998377 0.903126-4.479503 1.481126-24.962393 11.632259-36.016651 41.18253-24.384393 65.928173 1.842376 3.901503 6.213505 10.223382 9.103507 17.014887 16.328512 39.123404-0.578 84.351937-38.906654 103.100826-0.469625 0.21675-4.009878 2.203627-5.165878 3.106752-30.128272 15.642136-43.024907 52.345163-28.538771 83.412686 2.203627 4.840754 5.057504 9.103507 8.272631 13.00501-11.271008-8.959007-22.433641-23.011642-29.333522-37.606153-16.689762-35.908276-9.428632-85.616313 7.839131-109.422705l-4.154378-2.998377c-18.170888 25.070768-25.757144 77.090806-8.272631 114.696959 7.47788 16.111762 19.543639 30.706272 32.115148 40.171029-33.018274-14.486136-61.08742-40.38778-77.560431-75.60968-35.691526-76.946306 4.913004-167.150497 81.787059-202.950399zM252.080435 348.28138c0 1.481126-0.108375 3.106752 0.108375 4.587878 3.323502 27.491145 27.96077 47.070909 54.98229 43.819658 4.262753-0.469625 11.632259-2.745502 19.001764-3.323503 42.230156-3.323502 79.980809 26.80477 85.941438 69.034926 0 0.578 0.686376 4.479503 1.264376 5.743879 5.527129 33.596275 36.341777 57.294292 70.407676 53.139914 5.057504-0.686376 9.898257-1.950751 14.594511-3.684753-12.065759 7.839131-28.538771 13.908135-44.542158 15.895012-39.340154 4.732378-84.207437-17.701263-101.583574-41.543781l-4.154378 2.998378c18.170888 24.962393 65.241798 48.552036 106.315953 43.602906 17.592888-2.059127 35.077401-8.959007 47.974035-17.845763-24.059268 26.696395-57.402667 45.336908-95.839695 49.924787-84.099062 10.006632-157.288365-56.607916-167.294998-140.706978-3.504128-29.622522 1.445001-57.474917 12.824385-81.64256z m284.881958 280.872081c-15.895012 83.195936-101.475199 132.651097-184.77951 116.900585-29.441897-5.635504-54.657165-18.748889-74.092429-36.919777 1.481126 0.469625 2.890002 1.047626 4.479503 1.372751 27.16602 5.165879 53.284414-12.427009 58.341918-39.231778 0.794751-4.262753 0.794751-11.957384 2.528752-19.110139 9.537007-41.290905 49.816411-68.1318 91.829817-60.979045 0.578 0.108375 4.479503 0.578 5.996754 0.578 33.596275 4.949129 65.458548-17.267763 71.924928-50.972412 0.903126-4.949129 1.156001-9.898257 0.903126-14.739011 3.684753 13.79976 4.587878 31.284273 1.625626 46.92641-7.369505 38.906653-42.338531 75.03168-70.299302 84.351936l1.625626 4.840754c29.333521-9.789882 66.036548-47.50441 73.767304-88.25344 3.323502-17.484513 1.950751-36.341777-2.637126-51.333662 18.351513 30.850773 26.046144 68.34855 18.785013 106.568828z m149.015734 107.219078c-14.486136 26.226769-34.752275 46.023284-58.233542 59.028294 0.794751-1.264376 1.842376-2.420377 2.637127-3.793128 13.330135-24.167643 4.732378-54.54879-19.110139-67.662175-3.793128-2.059127-11.054258-4.587878-17.376138-8.417131-36.233402-21.964016-49.346786-68.5653-29.586397-106.207578 0.21675-0.469625 1.950751-4.154378 2.420377-5.418754 15.172511-30.489522 3.901503-67.662175-26.118394-84.351936-4.479503-2.420377-9.103507-4.154378-13.79976-5.52713 14.377761 0.686376 31.284273 5.310379 45.228533 13.00501 34.6439 19.110139 58.089043 63.616172 58.233543 93.094193h5.057503c-0.108375-30.959148-24.637268-77.452057-60.870669-97.465321-15.642136-8.633881-34.0659-13.22176-49.708037-13.474635 35.221901-7.839131 73.297679-3.576378 107.363579 15.172511 74.345304 40.929655 94.719819 137.672476 53.862414 212.01778z m129.544345-250.924433c-18.857264-20.12164-50.394412-21.277641-70.190926-2.637127-3.106752 2.998377-7.694631 9.103507-13.330135 14.052635-31.970648 27.74402-80.414309 25.757144-110.109081-4.732379-0.36125-0.36125-3.323502-3.106752-4.479503-3.901502-24.276018-23.806392-63.182671-24.637268-88.253439-1.156001-3.793128 3.576378-6.89988 7.47788-9.537007 11.740633 5.057504-13.58301 14.739011-28.430396 26.479644-39.340153 28.863896-27.02152 78.355182-35.655401 106.424328-26.696395l1.481126-4.949129c-29.441897-9.428632-81.245185-0.469625-111.481832 27.852396-12.788259 11.957384-22.794892 27.74402-28.069145 42.338531 3.576378-35.547026 19.435264-70.190926 47.64891-96.634446 61.773795-57.980667 160.178367-47.50441 218.159034 14.269385 20.48289 21.855641 33.126649 47.28766 38.184153 73.514429-1.083751-1.336626-1.770126-2.601002-2.926127-3.720877z" fill="#DE2910" p-id="9066"></path><path d="M698.621887 423.31306l-17.123263 5.165879-14.052635-11.162633-0.21675 17.845763-14.955761 9.753757 16.798137 5.996754 4.840754 17.159388 10.801382-14.161011 17.845764 0.794751-10.259508-14.739011 6.32188-16.653637z" fill="#DE2910" p-id="9067"></path><path d="M562.069287 401.312919c-28.177521 26.479644-43.964157 60.979045-47.64891 96.634446 5.310379-14.594511 15.317011-30.381147 28.069145-42.338531 30.272772-28.322021 82.039935-37.281027 111.481832-27.852396l-1.481126 4.949129c-28.069146-8.959007-77.560432-0.36125-106.424328 26.696394-11.740634 10.945883-21.386016 25.757144-26.479644 39.340154 2.637127-4.154378 5.852254-8.164256 9.537007-11.740633 25.070768-23.481267 63.977422-22.650392 88.253439 1.156001 1.264376 0.794751 4.154378 3.576378 4.479503 3.901502 29.694772 30.489522 78.138432 32.331899 110.109081 4.732379 5.527129-4.840754 10.115007-11.054258 13.330135-14.052635 19.90489-18.640514 51.333663-17.484513 70.190926 2.637126 1.047626 1.156001 1.842376 2.420377 2.890002 3.793128-5.057504-26.226769-17.701263-51.658788-38.184153-73.514429-57.980667-61.846045-156.349115-72.322303-218.122909-14.341635z m122.644464 52.598038l-10.801382 14.269386-4.732379-17.159388-16.906512-5.996754 14.955761-9.789882 0.36125-17.845763 14.052635 11.162633 17.159388-5.165879-6.32188 16.689762 10.223383 14.739011-17.990264-0.903126z m-163.971495 119.898963c-7.694631 40.712905-44.397658 78.463557-73.767304 88.25344l-1.625626-4.840754c27.96077-9.320257 62.929796-45.336908 70.299302-84.351936 2.998377-15.642136 2.059127-33.126649-1.625627-46.92641 0.21675 4.840754 0 9.789882-0.903125 14.739011-6.430255 33.70465-38.328653 55.921541-71.924928 50.972412-1.481126 0.108375-5.418754-0.469625-5.996754-0.578-42.013406-7.11663-82.14831 19.796514-91.829818 60.979045-1.625626 7.26113-1.625626 14.847386-2.528751 19.110139-5.057504 26.80477-31.284273 44.397658-58.341918 39.231778-1.481126-0.36125-2.998377-0.903126-4.479503-1.372751 19.543639 18.170888 44.650533 31.284273 74.092429 36.919777 83.304311 15.895012 168.920624-33.596275 184.77951-116.79221 7.26113-38.184153-0.469625-75.718055-18.748889-106.641078 4.551753 14.811261 5.960629 33.668525 2.601002 51.297537z m-96.30932 103.642701l-10.801383 14.269386-4.840754-17.267763-16.906512-5.852254 14.847386-9.898258 0.36125-17.845763 14.052635 11.054258 17.014888-5.165878-6.213505 16.689762 10.223383 14.594511-17.737388-0.578001z" fill="#FFFFFF" p-id="9068"></path><path d="M632.260213 524.318634c-34.0659-18.748889-72.033303-23.120017-107.363579-15.172511 15.642136 0.21675 34.0659 4.840754 49.708037 13.474635 36.233402 20.013265 60.762295 66.614549 60.870669 97.465321h-5.057503c-0.108375-29.441897-23.589642-73.875679-58.233543-93.094193-14.052635-7.694631-30.959148-12.318634-45.228533-13.00501 4.732378 1.264376 9.320257 2.998377 13.79976 5.52713 30.019897 16.581387 41.290905 53.862414 26.118394 84.351936-0.36125 1.372751-2.059127 4.949129-2.420377 5.418754-19.796514 37.606153-6.791505 84.207437 29.586397 106.207578 6.32188 3.793128 13.58301 6.213505 17.376138 8.417131 23.806392 13.113385 32.440274 43.494532 19.110139 67.662175-0.794751 1.372751-1.842376 2.528752-2.637127 3.793128 23.372892-13.00501 43.711282-32.801524 58.233543-59.028294 40.712905-74.309179 20.33839-171.052-53.862415-212.01778z m3.323503 135.90235l-10.801383 14.269385-4.732379-17.267763-16.906512-5.852254 14.847386-9.898257 0.36125-17.845763 13.908135 11.162633 17.159388-5.165879-6.32188 16.798137 10.223383 14.739011-17.737388-0.93925z m-228.960418-89.301066c38.437028-4.587878 71.780428-23.228392 95.839695-49.924786-12.896634 8.850631-30.381147 15.642136-47.974035 17.845763-41.18253 4.949129-88.25344-18.640514-106.315953-43.602907l4.154378-2.998377c17.376138 23.914768 62.243421 46.240034 101.583574 41.54378 16.003387-1.950751 32.440274-8.055881 44.542158-15.895012-4.587878 1.734001-9.428632 2.998377-14.594511 3.684753-34.174275 4.009878-64.880548-19.543639-70.407676-53.139914-0.469625-1.372751-1.156001-5.310379-1.264376-5.743879-5.996754-42.230156-43.711282-72.358428-85.941438-69.034926-7.369505 0.578-14.739011 2.890002-19.001764 3.323503-27.02152 3.215127-51.658788-16.328512-54.98229-43.819657-0.21675-1.481126-0.108375-3.106752-0.108375-4.587879-11.487758 24.167643-16.436887 52.020038-12.896635 81.823185 10.078882 83.918436 83.268186 150.532985 167.367248 140.526353z m-82.039935-108.375079l0.469625-17.845763 13.908135 11.271008 17.159388-5.057504-6.32188 16.689762 10.006633 14.739011-17.845764-0.79475-10.801382 14.16101-4.587879-17.267763-16.906512-5.852254 14.919636-10.042757z" fill="#FFFFFF" p-id="9069"></path><path d="M500.259366 505.569745c-12.427009-9.428632-24.637268-24.059268-32.115148-40.171029-17.484513-37.497777-9.789882-89.626191 8.272631-114.696959l4.154378 2.998377c-17.267763 23.806392-24.637268 73.514429-7.839131 109.422705 6.791505 14.594511 17.954138 28.538771 29.333522 37.606153-3.215127-3.901503-6.105129-8.164256-8.272631-13.00501-14.486136-31.067523-1.625626-67.77055 28.538771-83.412686 1.156001-0.903126 4.587878-2.890002 5.165878-3.106752 38.184153-18.748889 55.235165-63.977422 38.906654-103.100826-2.890002-6.791505-7.26113-13.113385-9.103507-17.014887-11.487758-24.745643-0.578-54.18754 24.384393-65.928173 1.481126-0.686376 2.998377-1.047626 4.479503-1.481126-26.479644-3.323502-54.54879 0.686376-81.678685 13.330134-76.874056 35.799901-117.370211 126.004092-81.678684 202.733649 16.364637 35.438651 44.433783 61.340295 77.452056 75.82643z m-14.486135-180.661257l0.36125-17.845763 13.908135 11.162633 17.014888-5.057504-6.32188 16.689763 10.223383 14.73901-17.845764-0.79475-10.801382 14.269385-4.587879-17.267762-16.906512-5.996755 14.955761-9.898257z" fill="#FFFFFF" p-id="9070"></path></svg>