<?xml version="1.0" standalone="no"?><!DOCTYPE svg PUBLIC "-//W3C//DTD SVG 1.1//EN" "http://www.w3.org/Graphics/SVG/1.1/DTD/svg11.dtd"><svg t="1509988368768" class="icon" style="" viewBox="0 0 1024 1024" version="1.1" xmlns="http://www.w3.org/2000/svg" p-id="10422" xmlns:xlink="http://www.w3.org/1999/xlink" width="512" height="512"><defs><style type="text/css"></style></defs><path d="M512 512m-512 0a512 512 0 1 0 1024 0 512 512 0 1 0-1024 0Z" fill="#F0F0F0" p-id="10423"></path><path d="M512 0C356.818 0 217.772 69.048 123.878 178.086H900.12C806.228 69.048 667.182 0 512 0zM900.122 845.914H123.878C217.772 954.952 356.818 1024 512 1024s294.228-69.048 388.122-178.086z" fill="#0052B4" p-id="10424"></path><path d="M948.852 244.87H75.148C27.49 322.64 0 414.106 0 512s27.49 189.362 75.148 267.13h873.704C996.51 701.362 1024 609.894 1024 512s-27.49-189.36-75.148-267.13z" fill="#D80027" p-id="10425"></path><path d="M314.992 512m-197.008 0a197.008 197.008 0 1 0 394.016 0 197.008 197.008 0 1 0-394.016 0Z" fill="#F0F0F0" p-id="10426"></path><path d="M314.992 314.992l44.202 136.042h143.276l-115.954 84.084 44.548 136.448-116.072-84.484-115.896 84.326 44.372-136.29-115.85-84.084h143.17z" fill="#D80027" p-id="10427"></path></svg>