<?xml version="1.0" standalone="no"?><!DOCTYPE svg PUBLIC "-//W3C//DTD SVG 1.1//EN" "http://www.w3.org/Graphics/SVG/1.1/DTD/svg11.dtd"><svg t="1509987959499" class="icon" style="" viewBox="0 0 1024 1024" version="1.1" xmlns="http://www.w3.org/2000/svg" p-id="10310" xmlns:xlink="http://www.w3.org/1999/xlink" width="512" height="512"><defs><style type="text/css"></style></defs><path d="M0 512a512 512 0 1 0 1024 0A512 512 0 1 0 0 512z" fill="#F0F0F0" p-id="10311"></path><path d="M690.086 512c0 44.522-79.732 155.826-178.086 155.826S333.914 556.522 333.914 512c0-98.356 79.732-178.086 178.086-178.086S690.086 413.644 690.086 512z" fill="#D80027" p-id="10312"></path><path d="M690.086 512c0 98.356-79.732 178.086-178.086 178.086S333.914 610.356 333.914 512" fill="#0052B4" p-id="10313"></path><path d="M700.884 669.41l47.22-47.22 31.482 31.48-47.22 47.22z m-78.714 78.71l47.22-47.224 31.482 31.482-47.22 47.222z m173.17 15.714l47.222-47.22 31.48 31.48-47.22 47.22z m-78.712 78.722l47.22-47.22 31.482 31.48-47.22 47.222z m31.482-125.93l47.22-47.22 31.482 31.48-47.22 47.22z m-78.692 78.708l47.22-47.22 31.482 31.48-47.22 47.222zM795.356 354.58L669.43 228.654l31.482-31.48 125.924 125.924z m-125.93-31.464l-47.22-47.22 31.48-31.48 47.22 47.22z m78.694 78.698l-47.22-47.222 31.48-31.48 47.22 47.22z m15.71-173.142l-47.22-47.222 31.48-31.482 47.22 47.22z m78.736 78.704l-47.222-47.22 31.48-31.482 47.224 47.22z m-661.12 409.26L307.37 842.56l-31.48 31.48-125.926-125.922zM307.36 748.1l47.222 47.222-31.48 31.48-47.22-47.22z m-78.7-78.694l47.222 47.222-31.48 31.482-47.222-47.22z m47.226-47.224L401.81 748.108l-31.48 31.48-125.926-125.924z m31.482-440.742L181.44 307.366l-31.48-31.482 125.924-125.926z m47.206 47.21L228.648 354.576l-31.48-31.482L323.092 197.17z m47.25 47.244L275.9 401.818l-31.48-31.48 125.924-125.924z" fill="" p-id="10314"></path></svg>