<?xml version="1.0" standalone="no"?><!DOCTYPE svg PUBLIC "-//W3C//DTD SVG 1.1//EN" "http://www.w3.org/Graphics/SVG/1.1/DTD/svg11.dtd"><svg t="1509987645211" class="icon" style="" viewBox="0 0 1024 1024" version="1.1" xmlns="http://www.w3.org/2000/svg" p-id="9348" xmlns:xlink="http://www.w3.org/1999/xlink" width="512" height="512"><defs><style type="text/css"></style></defs><path d="M512 512m-512 0a512 512 0 1 0 1024 0 512 512 0 1 0-1024 0Z" fill="#496E2D" p-id="9349"></path><path d="M601.044 490.65c-12.568 0-24.5 2.506-35.58 6.494 6.07-13.528 10.14-28.58 10.14-44.654 0-63.602-63.602-111.304-63.602-111.304S448.4 388.888 448.4 452.49c0 16.072 4.07 31.126 10.14 44.654-11.082-3.984-23.014-6.494-35.58-6.494-63.602 0-111.304 63.602-111.304 63.602s47.702 63.604 111.304 63.604c37.29 0 69.094-21.856 89.044-39.948 19.95 18.09 51.754 39.948 89.044 39.948 63.602 0 111.304-63.604 111.304-63.604s-47.706-63.602-111.308-63.602z" fill="#F0F0F0" p-id="9350"></path><path d="M512 200.348l13.138 40.432h42.514l-34.39 24.992 13.128 40.432L512 281.212l-34.39 24.992 13.128-40.432-34.39-24.992h42.514zM350.334 271.066l25.276 22.756 29.454-17.004-13.832 31.07 25.274 22.76-33.824-3.556-13.832 31.07-7.076-33.266-33.822-3.556 29.452-17.008zM231.988 389.414l33.268 7.07 17.006-29.454 3.556 33.822 33.264 7.076-31.068 13.834 3.556 33.82-22.762-25.27-31.068 13.832 17.006-29.456zM673.666 271.066l-25.274 22.756-29.454-17.004 13.83 31.07-25.272 22.76 33.824-3.556 13.832 31.07 7.076-33.266 33.822-3.556-29.452-17.008zM792.014 389.414l-33.268 7.07-17.004-29.454-3.558 33.822-33.264 7.076 31.068 13.834-3.556 33.82 22.762-25.27 31.068 13.832-17.006-29.456z" fill="#FFDA44" p-id="9351"></path><path d="M512 795.944c50.522 0 97.09-16.856 134.446-45.218H377.556c37.356 28.36 83.922 45.218 134.444 45.218zM307.934 662.378a222.566 222.566 0 0 0 26.55 45.218H689.52a222.51 222.51 0 0 0 26.55-45.218H307.934z" fill="#F0F0F0" p-id="9352"></path></svg>