<?xml version="1.0" standalone="no"?><!DOCTYPE svg PUBLIC "-//W3C//DTD SVG 1.1//EN" "http://www.w3.org/Graphics/SVG/1.1/DTD/svg11.dtd"><svg t="1509989102494" class="icon" style="" viewBox="0 0 1024 1024" version="1.1" xmlns="http://www.w3.org/2000/svg" p-id="14825" xmlns:xlink="http://www.w3.org/1999/xlink" width="512" height="512"><defs><style type="text/css"></style></defs><path d="M512 512m-512 0a512 512 0 1 0 1024 0 512 512 0 1 0-1024 0Z" fill="#F0F0F0" p-id="14826"></path><path d="M489.74 512H1024c0-46.214-6.16-90.978-17.638-133.566H489.74V512zM489.74 244.87h459.112a514.656 514.656 0 0 0-118.138-133.566H489.74v133.566zM512 1024c120.498 0 231.252-41.648 318.714-111.304H193.286C280.748 982.352 391.502 1024 512 1024zM75.148 779.13h873.704a508.984 508.984 0 0 0 57.51-133.566H17.638a508.92 508.92 0 0 0 57.51 133.566z" fill="#D80027" p-id="14827"></path><path d="M512 512V0C229.232 0 0 229.232 0 512h512z" fill="#0052B4" p-id="14828"></path><path d="M340.468 438.26c-69.924 0-126.608-56.686-126.608-126.608s56.686-126.608 126.608-126.608c21.802 0 42.316 5.514 60.226 15.218-28.096-27.474-66.52-44.434-108.922-44.434-86.058 0-155.826 69.766-155.826 155.826s69.768 155.826 155.826 155.826c42.402 0 80.826-16.96 108.922-44.434-17.91 9.7-38.422 15.214-60.226 15.214z" fill="#FFDA44" p-id="14829"></path><path d="M376.146 222.608l22.478 47.004 50.762-11.728-22.732 46.878 40.824 32.374-50.828 11.458 0.142 52.102-40.646-32.596-40.648 32.596 0.14-52.102-50.828-11.458 40.824-32.374-22.734-46.878 50.766 11.728z" fill="#FFDA44" p-id="14830"></path></svg>