<?xml version="1.0" standalone="no"?><!DOCTYPE svg PUBLIC "-//W3C//DTD SVG 1.1//EN" "http://www.w3.org/Graphics/SVG/1.1/DTD/svg11.dtd"><svg t="1509989297394" class="icon" style="" viewBox="0 0 1024 1024" version="1.1" xmlns="http://www.w3.org/2000/svg" p-id="14984" xmlns:xlink="http://www.w3.org/1999/xlink" width="512" height="512"><defs><style type="text/css"></style></defs><path d="M512 512m-512 0a512 512 0 1 0 1024 0 512 512 0 1 0-1024 0Z" fill="#F0F0F0" p-id="14985"></path><path d="M1020.994 567.652l-0.012-0.016-0.002 0.016zM1020.98 567.652l0.002-0.016L459.492 2.662a510.336 510.336 0 0 0-74.218 13.148C163.796 72.2 0 512 0 512s716.796 479.67 798.57 424.328a513.78 513.78 0 0 0 46.986-35.906L512.79 567.652H1020.98z" fill="#0052B4" p-id="14986"></path><path d="M890.434 512L392.49 14.058C167.376 67.892 0 270.384 0 512c0 282.768 229.232 512 512 512 107.258 0 206.794-33.004 289.058-89.378L378.434 512h512z" fill="#D80027" p-id="14987"></path><path d="M486.944 755.986l-62.53-29.412 33.298-60.558-67.9 12.99-8.604-68.596-47.294 50.45-47.294-50.45-8.606 68.596-67.898-12.992 33.298 60.56-62.532 29.412 62.532 29.41-33.298 60.56 67.902-12.988 8.6 68.592 47.296-50.45 47.294 50.45 8.604-68.592 67.898 12.99-33.298-60.558zM445.218 283.966l-45.48-21.39 24.218-44.046-49.386 9.448-6.258-49.892-34.398 36.694-34.398-36.694-6.26 49.892-49.386-9.448 24.22 44.046-45.482 21.39 111.306 22.264z" fill="#F0F0F0" p-id="14988"></path><path d="M467.478 283.966c0 73.766-59.8 133.566-133.566 133.566s-133.566-59.8-133.566-133.566" fill="#F0F0F0" p-id="14989"></path></svg>