<?xml version="1.0" standalone="no"?><!DOCTYPE svg PUBLIC "-//W3C//DTD SVG 1.1//EN" "http://www.w3.org/Graphics/SVG/1.1/DTD/svg11.dtd"><svg t="1509990835210" class="icon" style="" viewBox="0 0 1024 1024" version="1.1" xmlns="http://www.w3.org/2000/svg" p-id="15229" xmlns:xlink="http://www.w3.org/1999/xlink" width="512" height="512"><defs><style type="text/css"></style></defs><path d="M512 512m-512 0a512 512 0 1 0 1024 0 512 512 0 1 0-1024 0Z" fill="#F0F0F0" p-id="15230"></path><path d="M0 512.002C0 229.232 229.232 0 512 0s512 229.232 512 512.002" fill="#D80027" p-id="15231"></path><path d="M311.652 267.128c0-74.596 52.426-136.912 122.434-152.202a156.416 156.416 0 0 0-33.392-3.622c-86.062 0-155.826 69.764-155.826 155.826s69.764 155.826 155.826 155.826c11.466 0 22.63-1.274 33.392-3.624-70.008-15.29-122.434-77.606-122.434-152.204zM512 122.434l11.052 34.01h35.762L529.88 177.466l11.052 34.01L512 190.458l-28.932 21.018 11.052-34.01-28.932-21.022h35.76z" fill="#F0F0F0" p-id="15232"></path><path d="M425.25 189.216l11.05 34.012h35.762l-28.932 21.02 11.052 34.01-28.932-21.018-28.936 21.018 11.054-34.01-28.934-21.02h35.762zM598.752 189.216l11.054 34.012h35.76l-28.934 21.02 11.054 34.01-28.934-21.018-28.932 21.018 11.052-34.01-28.932-21.02h35.76zM565.362 289.39l11.052 34.012h35.76l-28.932 21.02 11.052 34.01-28.932-21.018-28.932 21.018 11.052-34.01-28.932-21.02h35.758zM458.64 289.39l11.05 34.012h35.764l-28.934 21.02 11.054 34.01-28.934-21.018-28.934 21.018 11.052-34.01-28.932-21.02h35.762z" fill="#F0F0F0" p-id="15233"></path></svg>