<?xml version="1.0" standalone="no"?><!DOCTYPE svg PUBLIC "-//W3C//DTD SVG 1.1//EN" "http://www.w3.org/Graphics/SVG/1.1/DTD/svg11.dtd"><svg t="1509987899485" class="icon" style="" viewBox="0 0 1024 1024" version="1.1" xmlns="http://www.w3.org/2000/svg" p-id="10057" xmlns:xlink="http://www.w3.org/1999/xlink" width="512" height="512"><defs><style type="text/css"></style></defs><path d="M1024 512c0 282.768-229.232 512-512 512S0 794.768 0 512L512 0c282.768 0 512 229.232 512 512z" fill="#D80027" p-id="10058"></path><path d="M512 512V0C229.232 0 0 229.232 0 512h512z" fill="#0052B4" p-id="10059"></path><path d="M445.218 299.642l-62.53 29.416 33.296 60.558-67.898-12.992-8.606 68.594-47.292-50.448-47.296 50.448-8.602-68.594-67.9 12.988 33.296-60.558-62.528-29.412 62.53-29.41-33.298-60.56 67.898 12.99 8.606-68.592 47.294 50.448 47.294-50.448 8.604 68.592 67.9-12.99-33.298 60.562z" fill="#F0F0F0" p-id="10060"></path><path d="M292.196 299.632m-95.306 0a95.306 95.306 0 1 0 190.612 0 95.306 95.306 0 1 0-190.612 0Z" fill="#0052B4" p-id="10061"></path><path d="M292.188 350.426c-28.002 0-50.782-22.782-50.782-50.784s22.782-50.784 50.782-50.784c28.002 0 50.784 22.782 50.784 50.784-0.002 28.002-22.786 50.784-50.784 50.784z" fill="#F0F0F0" p-id="10062"></path></svg>